{"title":"Monsoon Shootout 2017 Hindi Pre-DVDRip x264 AAC { TaRa }","magnet":"magnet:?xt=urn:btih:c1fa58f2edd3a2d24176b44831c521a7ac110ec7&dn=Monsoon+Shootout+2017+Hindi+Pre-DVDRip+x264+AAC+%7B+TaRa+%7D&tr=udp%3A%2F%2Ftracker.leechers-paradise.org%3A6969&tr=udp%3A%2F%2Fzer0day.ch%3A1337&tr=udp%3A%2F%2Fopen.demonii.com%3A1337&tr=udp%3A%2F%2Ftracker.coppersurfer.tk%3A6969&tr=udp%3A%2F%2Fexodus.desync.com%3A6969","uploader":"SkTaRa","categoryP":"video","categoryS":"movies","size":"740347405","seeders":"64","leechers":"156","description":"===================================================================\r\nGeneral\r\nComplete name               : Monsoon Shootout 2017 Hindi Pre-DVDRip x264 AAC { TaRa }.mkv\r\nFormat                      : Matroska\r\nFormat version              : Version 4 / Version 2\r\nFile size                   : 706 MiB\r\nDuration                    : 1 h 25 min\r\nOverall bit rate            : 1 156 kb/s\r\n===================================================================\r\nVideo\r\nID                          : 1\r\nFormat                      : AVC\r\nFormat/Info                 : Advanced Video Codec\r\nFormat profile              : <a href=\"/cdn-cgi/l/email-protection\" class=\"__cf_email__\" data-cfemail=\"4e032f27200e027a\">[email&#xA0;protected]</a>\r\nFormat settings, CABAC      : Yes\r\nFormat settings, ReFrames   : 4 frames\r\nCodec ID                    : V_MPEG4/ISO/AVC\r\nDuration                    : 1 h 25 min\r\nBit rate                    : 1 121 kb/s\r\nWidth                       : 720 pixels\r\nHeight                      : 304 pixels\r\nDisplay aspect ratio        : 2.35:1\r\nFrame rate mode             : Constant\r\nFrame rate                  : 29.970 (30000/1001) FPS\r\nColor space                 : YUV\r\nChroma subsampling          : 4:2:0\r\nBit depth                   : 8 bits\r\nScan type                   : Progressive\r\nBits/(Pixel*Frame)          : 0.171\r\nStream size                 : 685 MiB (97%)\r\nTitle                       : ......::::: TaRa :::::.....\r\nLanguage                    : Hindi\r\nDefault                     : Yes\r\nForced                      : No\r\n===================================================================\r\nAudio\r\nID                          : 2\r\nFormat                      : MPEG Audio\r\nFormat version              : Version 1\r\nFormat profile              : Layer 3\r\nMode                        : Joint stereo\r\nMode extension              : MS Stereo\r\nCodec ID                    : A_MPEG/L3\r\nCodec ID/Hint               : MP3\r\nDuration                    : 1 h 25 min\r\nBit rate mode               : Constant\r\nBit rate                    : 32.0 kb/s\r\nChannel(s)                  : 2 channels\r\nSampling rate               : 48.0 kHz\r\nFrame rate                  : 41.667 FPS (1152 spf)\r\nCompression mode            : Lossy\r\nDelay relative to video     : -23 ms\r\nStream size                 : 19.5 MiB (3%)\r\nTitle                       : ......::::: TaRa :::::.....\r\nLanguage                    : Hindi\r\nDefault                     : Yes\r\nForced                      : No\r\n=================================================================== <a href=\"\nhttps://extraimage.net/image/jqCx\" rel=\"nofollow\" target=\"_NEW\">\nhttps://extraimage.net/image/jqCx</a> <a href=\"\nhttps://extraimage.net/image/jqC6\" rel=\"nofollow\" target=\"_NEW\">\nhttps://extraimage.net/image/jqC6</a> <a href=\"\nhttps://extraimage.net/image/jqCV\" rel=\"nofollow\" target=\"_NEW\">\nhttps://extraimage.net/image/jqCV</a> <a href=\"\nhttps://extraimage.net/image/jqCu\" rel=\"nofollow\" target=\"_NEW\">\nhttps://extraimage.net/image/jqCu</a> <a href=\"\nhttps://extraimage.net/image/jqCv\" rel=\"nofollow\" target=\"_NEW\">\nhttps://extraimage.net/image/jqCv</a> <a href=\"\nhttps://extraimage.net/image/jqCA\" rel=\"nofollow\" target=\"_NEW\">\nhttps://extraimage.net/image/jqCA</a> <a href=\"\nhttps://extraimage.net/image/jqCW\" rel=\"nofollow\" target=\"_NEW\">\nhttps://extraimage.net/image/jqCW</a> <a href=\"\nhttps://extraimage.net/image/jqCf\" rel=\"nofollow\" target=\"_NEW\">\nhttps://extraimage.net/image/jqCf</a>","last_updated":"2017-12-24T12:05:11.274Z","parsed":{"xt":"urn:btih:c1fa58f2edd3a2d24176b44831c521a7ac110ec7","dn":"Monsoon Shootout 2017 Hindi Pre-DVDRip x264 AAC { TaRa }","tr":["udp://exodus.desync.com:6969","udp://open.demonii.com:1337","udp://tracker.coppersurfer.tk:6969","udp://tracker.leechers-paradise.org:6969","udp://zer0day.ch:1337"],"infoHash":"c1fa58f2edd3a2d24176b44831c521a7ac110ec7","infoHashBuffer":{"type":"Buffer","data":[193,250,88,242,237,211,162,210,65,118,180,72,49,197,33,167,172,17,14,199]},"name":"Monsoon Shootout 2017 Hindi Pre-DVDRip x264 AAC { TaRa }","announce":["udp://exodus.desync.com:6969","udp://open.demonii.com:1337","udp://tracker.coppersurfer.tk:6969","udp://tracker.leechers-paradise.org:6969","udp://zer0day.ch:1337"],"urlList":[]}}